
<svg width="128" height="128" viewBox="0 0 128 128" fill="none" xmlns="http://www.w3.org/2000/svg">
  <rect width="128" height="128" fill="white"/>
  <g>
    <!-- QR Code Pattern - This is a simplified version that looks like a QR code -->
    <!-- Top-left position marker -->
    <rect x="16" y="16" width="24" height="24" fill="black"/>
    <rect x="20" y="20" width="16" height="16" fill="white"/>
    <rect x="24" y="24" width="8" height="8" fill="black"/>
    
    <!-- Top-right position marker -->
    <rect x="88" y="16" width="24" height="24" fill="black"/>
    <rect x="92" y="20" width="16" height="16" fill="white"/>
    <rect x="96" y="24" width="8" height="8" fill="black"/>
    
    <!-- Bottom-left position marker -->
    <rect x="16" y="88" width="24" height="24" fill="black"/>
    <rect x="20" y="92" width="16" height="16" fill="white"/>
    <rect x="24" y="96" width="8" height="8" fill="black"/>
    
    <!-- QR Code data pattern (simplified) -->
    <rect x="48" y="16" width="8" height="8" fill="black"/>
    <rect x="64" y="16" width="8" height="8" fill="black"/>
    <rect x="48" y="24" width="8" height="8" fill="black"/>
    <rect x="72" y="24" width="8" height="8" fill="black"/>
    <rect x="16" y="48" width="8" height="8" fill="black"/>
    <rect x="32" y="48" width="8" height="8" fill="black"/>
    <rect x="48" y="48" width="8" height="8" fill="black"/>
    <rect x="80" y="48" width="8" height="8" fill="black"/>
    <rect x="104" y="48" width="8" height="8" fill="black"/>
    <rect x="32" y="56" width="8" height="8" fill="black"/>
    <rect x="56" y="56" width="8" height="8" fill="black"/>
    <rect x="64" y="56" width="8" height="8" fill="black"/>
    <rect x="96" y="56" width="8" height="8" fill="black"/>
    <rect x="24" y="64" width="8" height="8" fill="black"/>
    <rect x="48" y="64" width="8" height="8" fill="black"/>
    <rect x="72" y="64" width="8" height="8" fill="black"/>
    <rect x="80" y="64" width="8" height="8" fill="black"/>
    <rect x="88" y="64" width="8" height="8" fill="black"/>
    <rect x="104" y="64" width="8" height="8" fill="black"/>
    <rect x="16" y="72" width="8" height="8" fill="black"/>
    <rect x="40" y="72" width="8" height="8" fill="black"/>
    <rect x="64" y="72" width="8" height="8" fill="black"/>
    <rect x="96" y="72" width="8" height="8" fill="black"/>
    <rect x="48" y="80" width="8" height="8" fill="black"/>
    <rect x="56" y="80" width="8" height="8" fill="black"/>
    <rect x="72" y="80" width="8" height="8" fill="black"/>
    <rect x="88" y="80" width="8" height="8" fill="black"/>
    <rect x="56" y="88" width="8" height="8" fill="black"/>
    <rect x="72" y="88" width="8" height="8" fill="black"/>
    <rect x="80" y="88" width="8" height="8" fill="black"/>
    <rect x="104" y="88" width="8" height="8" fill="black"/>
    <rect x="48" y="96" width="8" height="8" fill="black"/>
    <rect x="64" y="96" width="8" height="8" fill="black"/>
    <rect x="88" y="96" width="8" height="8" fill="black"/>
    <rect x="56" y="104" width="8" height="8" fill="black"/>
    <rect x="72" y="104" width="8" height="8" fill="black"/>
    <rect x="96" y="104" width="8" height="8" fill="black"/>
  </g>
</svg>
